<?xml version="1.0" encoding="UTF-8"?>
<svg version="1.1" xmlns="http://www.w3.org/2000/svg" width="512" height="512">
<path d="M0 0 C1.01790619 0.00215515 2.03581238 0.0043103 3.08456421 0.00653076 C17.69363523 0.05620146 32.02575853 0.30709809 46.375 3.3125 C47.34985352 3.51117676 48.32470703 3.70985352 49.32910156 3.91455078 C94.8971276 13.446565 137.11143364 33.40821735 171.625 64.875 C172.12281982 65.32407715 172.62063965 65.7731543 173.13354492 66.23583984 C175.52519983 68.43589261 177.64498049 70.6503194 179.67578125 73.19140625 C183.25955579 77.54269036 186.00361663 80.40651501 191.73046875 81.015625 C195.02569498 81.19204758 198.31397592 81.19794047 201.61328125 81.203125 C216.49012353 81.28621927 229.57253172 88.93918869 240.125 98.93359375 C253.22332764 112.78234642 257.02303133 128.31660329 256.6875 146.8046875 C256.27262309 156.92422671 253.65789385 165.60536786 247.44921875 173.73828125 C244.51577806 180.76787185 248.44240853 189.93239794 250.25 196.9375 C260.20171155 237.82993339 259.17299795 280.99698831 248.77734375 321.67578125 C248.54273438 322.6198584 248.308125 323.56393555 248.06640625 324.53662109 C247.60667447 326.38236627 247.13015904 328.2240144 246.63671875 330.06103516 C245.33962664 335.28516234 245.33962664 335.28516234 246.5703125 340.421875 C247.20710938 341.29328125 247.84390625 342.1646875 248.5 343.0625 C257.39442465 356.92166267 258.52490151 373.21024544 255.6796875 389.2265625 C254.78031327 392.39326673 253.71083113 395.30583306 252.375 398.3125 C251.97410156 399.23804688 251.57320313 400.16359375 251.16015625 401.1171875 C243.46714812 416.85998095 230.44334419 426.3854239 214.3203125 432.3671875 C209.84282728 433.80425835 206.50040518 434.3859576 201.8203125 433.8828125 C190.74719735 432.72234726 190.74719735 432.72234726 181.046875 437.33203125 C177.7816108 440.50215085 174.85598221 443.95246449 171.96386719 447.46240234 C168.32875117 451.6951788 163.79740789 454.95171266 159.375 458.3125 C158.83472168 458.72918945 158.29444336 459.14587891 157.73779297 459.57519531 C123.10615677 486.19699135 82.6106052 503.76676591 39.375 510.3125 C38.25689941 510.48982666 37.13879883 510.66715332 35.98681641 510.84985352 C25.22545702 512.39416151 14.5855899 512.65229671 3.72314453 512.62817383 C0.77468385 512.62502635 -2.17275697 512.64852578 -5.12109375 512.67382812 C-18.51105903 512.71844438 -31.42266733 511.51675057 -44.625 509.3125 C-45.76195312 509.12437744 -46.89890625 508.93625488 -48.0703125 508.74243164 C-93.99914321 500.49311764 -136.0140549 478.61205929 -170.75 447.8125 C-171.99523437 446.71615234 -171.99523437 446.71615234 -173.265625 445.59765625 C-175.625 443.3125 -175.625 443.3125 -177.546875 440.74609375 C-180.18748968 437.37138818 -182.35078724 434.67011957 -186.77685547 433.97412109 C-191.11119541 433.76317685 -195.41443406 433.97195151 -199.74609375 434.16796875 C-213.52726957 434.76600486 -226.96133112 428.16187361 -237.0625 419.0625 C-247.68745321 409.02281963 -255.32422551 394.97632982 -255.9609375 380.2109375 C-256.21042072 365.05926254 -255.04432956 353.04421414 -245.8203125 340.421875 C-244.0057512 335.70164365 -245.3439496 332.08170153 -246.625 327.3125 C-247.09295969 325.43372115 -247.56039251 323.554811 -248.02734375 321.67578125 C-248.40125244 320.21265503 -248.40125244 320.21265503 -248.78271484 318.7199707 C-259.02035799 278.0867202 -259.17199669 234.42015304 -248.69482422 193.81713867 C-245.58554063 183.76806636 -245.58554063 183.76806636 -246.69921875 173.73828125 C-247.23160156 173.04089844 -247.76398438 172.34351563 -248.3125 171.625 C-256.99019648 158.37583638 -257.64500504 141.68353961 -254.9296875 126.3984375 C-254.03031327 123.23173327 -252.96083113 120.31916694 -251.625 117.3125 C-251.22410156 116.38695313 -250.82320312 115.46140625 -250.41015625 114.5078125 C-242.71714812 98.76501905 -229.69334419 89.2395761 -213.5703125 83.2578125 C-209.35138779 81.90372791 -206.02393096 81.22683603 -201.61328125 81.62890625 C-195.40523803 82.0577843 -189.53908314 82.2789473 -184.20605469 78.68017578 C-179.28401001 74.36336791 -175.01562121 69.43905502 -170.68701172 64.54003906 C-167.82715788 61.45061135 -164.72579631 58.84900457 -161.375 56.3125 C-160.53026123 55.67199707 -160.53026123 55.67199707 -159.66845703 55.01855469 C-157.99666534 53.76990958 -156.31204798 52.54042397 -154.625 51.3125 C-153.47505169 50.45600934 -152.32531411 49.59923567 -151.17578125 48.7421875 C-142.98565742 42.70215791 -134.48120382 37.31882386 -125.625 32.3125 C-124.91778809 31.9103125 -124.21057617 31.508125 -123.48193359 31.09375 C-100.34654164 18.0683259 -75.17537591 9.31948539 -49.1875 4 C-48.46860596 3.85264404 -47.74971191 3.70528809 -47.0090332 3.5534668 C-31.36274391 0.57960912 -15.88931954 -0.06050362 0 0 Z " fill="#49B5FB" transform="translate(255.625,-0.3125)"/>
<path d="M0 0 C11.29362171 9.64131205 20.15160481 23.28269789 21.49829102 38.37451172 C22.14900025 53.23168179 21.72888877 67.04060249 12.3515625 79.32421875 C9.41812181 86.35380935 13.34475228 95.51833544 15.15234375 102.5234375 C25.1040553 143.41587089 24.0753417 186.58292581 13.6796875 227.26171875 C13.44507813 228.2057959 13.21046875 229.14987305 12.96875 230.12255859 C12.50901822 231.96830377 12.03250279 233.8099519 11.5390625 235.64697266 C10.24197039 240.87109984 10.24197039 240.87109984 11.47265625 246.0078125 C12.10945312 246.87921875 12.74625 247.750625 13.40234375 248.6484375 C22.2967684 262.50760017 23.42724526 278.79618294 20.58203125 294.8125 C19.68265702 297.97920423 18.61317488 300.89177056 17.27734375 303.8984375 C16.87644531 304.82398438 16.47554687 305.74953125 16.0625 306.703125 C8.36949187 322.44591845 -4.65431206 331.9713614 -20.77734375 337.953125 C-36.08375059 342.86579139 -52.31464576 340.28339197 -66.5859375 333.546875 C-81.89472687 325.02347438 -92.66164694 311.00488689 -97.59765625 294.2734375 C-101.70537172 275.50585125 -97.08185313 260.28855815 -87.72265625 243.8984375 C-87.04995978 242.56813615 -86.38209329 241.23536121 -85.72265625 239.8984375 C-96.13516222 233.80909497 -106.54805997 227.7206821 -117 221.69921875 C-117.591297 221.35853867 -118.18259399 221.01785858 -118.79180908 220.66685486 C-121.66994992 219.00916416 -124.5490901 217.35324531 -127.42919922 215.69897461 C-128.47092285 215.09964111 -129.51264648 214.50030762 -130.5859375 213.8828125 C-131.50673096 213.35397461 -132.42752441 212.82513672 -133.3762207 212.28027344 C-135.19328392 211.21018939 -136.96807571 210.06815786 -138.72265625 208.8984375 C-138.31015625 207.6609375 -137.89765625 206.4234375 -137.47265625 205.1484375 C-137.20066406 204.32472656 -136.92867188 203.50101563 -136.6484375 202.65234375 C-136.01860719 200.77879788 -135.36937528 198.91168719 -134.703125 197.05078125 C-134.35894531 196.07238281 -134.01476562 195.09398437 -133.66015625 194.0859375 C-133.33917969 193.19261719 -133.01820313 192.29929687 -132.6875 191.37890625 C-129.89082408 181.29049232 -129.30321879 171.26705165 -129.28515625 160.8359375 C-129.28342407 160.15956238 -129.28169189 159.48318726 -129.27990723 158.78631592 C-129.29709717 143.44429063 -132.27327854 130.78940488 -138.72265625 116.8984375 C-137.27687788 112.5611024 -134.00441898 111.60447221 -130.16015625 109.5859375 C-128.52332174 108.70314469 -126.8879849 107.81757112 -125.25390625 106.9296875 C-124.36832031 106.44886719 -123.48273438 105.96804687 -122.5703125 105.47265625 C-116.35725351 102.03800224 -110.25690529 98.40548072 -104.13647461 94.80932617 C-98.37285478 91.42812471 -92.58258652 88.11012127 -86.72265625 84.8984375 C-87.26535156 83.93164062 -87.80804688 82.96484375 -88.3671875 81.96875 C-92.34230619 74.77651546 -95.86291256 67.96757334 -97.72265625 59.8984375 C-97.90441406 59.31449219 -98.08617187 58.73054688 -98.2734375 58.12890625 C-101.41508489 42.52994399 -97.26782187 26.05836653 -88.72265625 12.8984375 C-80.1521328 1.28948923 -69.30091206 -6.33334098 -55.72265625 -11.1015625 C-55.02011719 -11.3490625 -54.31757813 -11.5965625 -53.59375 -11.8515625 C-34.8571547 -17.13154239 -15.04115071 -11.60995564 0 0 Z " fill="#6A5CB5" transform="translate(490.72265625,94.1015625)"/>
<path d="M0 0 C0.4846875 0.89460938 0.969375 1.78921875 1.46875 2.7109375 C5.69735759 10.39281908 10.1240191 17.43707889 16 24 C17.19882812 25.33998047 17.19882812 25.33998047 18.421875 26.70703125 C37.58692845 46.97776086 64.04832343 57.90133814 91.6875 58.8125 C95.420625 58.874375 99.15375 58.93625 103 59 C103 69.23 103 79.46 103 90 C106.3 90.33 109.6 90.66 113 91 C115.83445562 92.02127784 118.24365479 92.99812942 120.875 94.375 C121.55554443 94.7251416 122.23608887 95.0752832 122.93725586 95.43603516 C136.54596322 102.79804427 146.47681571 114.57835214 152 129 C152.391875 130.010625 152.78375 131.02125 153.1875 132.0625 C157.82326376 148.82256898 154.69266287 164.99107754 146.765625 180.14453125 C143.76180038 185.00248656 140.05065999 188.99961416 136 193 C135.45859375 193.56332031 134.9171875 194.12664062 134.359375 194.70703125 C122.01715389 206.51940953 105.06036399 209.56589698 88.6875 209.375 C87.98513214 209.37067963 87.28276428 209.36635925 86.55911255 209.36190796 C74.18289809 209.27303187 62.17052473 208.28907703 50 206 C49.10120117 205.83902832 48.20240234 205.67805664 47.27636719 205.51220703 C0.98741347 197.06134754 -41.04904045 175.60104223 -76.125 144.5 C-77.37023437 143.40365234 -77.37023437 143.40365234 -78.640625 142.28515625 C-81 140 -81 140 -82.921875 137.43359375 C-85.56248968 134.05888818 -87.72578724 131.35761957 -92.15185547 130.66162109 C-96.48619541 130.45067685 -100.78943406 130.65945151 -105.12109375 130.85546875 C-118.90226957 131.45350486 -132.33633112 124.84937361 -142.4375 115.75 C-153.06245321 105.71031963 -160.69922551 91.66382982 -161.3359375 76.8984375 C-161.61271156 60.08932902 -159.72008872 44.36062175 -147.62890625 31.47265625 C-139.76315315 24.07440705 -132.32866576 17.61094515 -122 14 C-120.9169458 13.61702759 -120.9169458 13.61702759 -119.81201172 13.22631836 C-113.60192427 11.17602509 -107.90215709 10.42002279 -101.375 10.4375 C-99.94365723 10.44112549 -99.94365723 10.44112549 -98.48339844 10.44482422 C-85.51334656 10.77744539 -71.4116778 15.77468934 -61.98046875 24.96875 C-60.81171845 26.20885558 -59.67017296 27.47575008 -58.5703125 28.77734375 C-57.79300781 29.38255859 -57.79300781 29.38255859 -57 30 C-53.60480521 29.5113892 -50.94681517 28.00093083 -47.984375 26.33203125 C-46.99123291 25.77475342 -45.99809082 25.21747559 -44.97485352 24.64331055 C-43.91065186 24.03914307 -42.8464502 23.43497559 -41.75 22.8125 C-40.65421631 22.19479736 -39.55843262 21.57709473 -38.42944336 20.94067383 C-27.56622568 14.7970854 -16.78766098 8.50880201 -6.03344727 2.17651367 C-2.27163312 0 -2.27163312 0 0 0 Z " fill="#6E61B7" transform="translate(161,303)"/>
<path d="M0 0 C-2.98988957 1.58206278 -5.98645763 2.72700944 -9.1875 3.8125 C-25.02227598 9.56678199 -37.01466949 20.31618903 -44.3125 35.5625 C-50.06090132 48.17748482 -51.54657556 64.00205973 -47.09765625 77.328125 C-39.73287669 95.25520407 -29.267926 107.45748022 -11.50390625 115.73828125 C-7.14701929 117.30714913 -2.54082024 118.09183595 2 119 C2 129.23 2 139.46 2 150 C-4.435 150.99 -4.435 150.99 -11 152 C-38.90176677 157.71579882 -63.23802237 174.27407578 -79 198 C-80.6347304 200.67863806 -82.23050144 203.36910031 -83.7734375 206.1015625 C-85 208 -85 208 -87 209 C-89.25219727 207.98706055 -89.25219727 207.98706055 -92.06640625 206.38671875 C-93.10152344 205.80269287 -94.13664063 205.21866699 -95.203125 204.61694336 C-96.31171875 203.98022705 -97.4203125 203.34351074 -98.5625 202.6875 C-99.69042969 202.04756104 -100.81835938 201.40762207 -101.98046875 200.74829102 C-112.03113048 195.02968771 -122.01390626 189.19165624 -131.9296875 183.2421875 C-132.73664063 182.77039063 -133.54359375 182.29859375 -134.375 181.8125 C-135.02210938 181.42707031 -135.66921875 181.04164063 -136.3359375 180.64453125 C-138.20931099 179.71558966 -138.20931099 179.71558966 -141 181 C-141.515625 181.70125 -142.03125 182.4025 -142.5625 183.125 C-151.12565699 193.22513388 -165.08026512 199.4158717 -178 201 C-196.94048936 202.44024122 -211.80040059 198.23385527 -226.75 186.0625 C-234.18282522 179.30377349 -239.05866599 172.28005007 -243 163 C-243.34289062 162.19433594 -243.68578125 161.38867188 -244.0390625 160.55859375 C-248.59973929 147.28148328 -247.64353059 129.70236666 -242 117 C-241.59910156 116.07445313 -241.19820312 115.14890625 -240.78515625 114.1953125 C-233.09214812 98.45251905 -220.06834419 88.9270761 -203.9453125 82.9453125 C-199.72638779 81.59122791 -196.39893096 80.91433603 -191.98828125 81.31640625 C-185.78023803 81.7452843 -179.91408314 81.9664473 -174.58105469 78.36767578 C-169.65901001 74.05086791 -165.39062121 69.12655502 -161.06201172 64.22753906 C-158.20215788 61.13811135 -155.10079631 58.53650457 -151.75 56 C-150.90526123 55.35949707 -150.90526123 55.35949707 -150.04345703 54.70605469 C-148.37166534 53.45740958 -146.68704798 52.22792397 -145 51 C-143.85005169 50.14350934 -142.70031411 49.28673567 -141.55078125 48.4296875 C-133.36065742 42.38965791 -124.85620382 37.00632386 -116 32 C-115.29278809 31.5978125 -114.58557617 31.195625 -113.85693359 30.78125 C-80.11776755 11.78581013 -39.05436115 -1.22257131 0 0 Z " fill="#6D61B6" transform="translate(246,0)"/>
<path d="M0 0 C3.85195777 1.56931613 6.11743947 4.05040318 9 7 C14.55807671 12.54313565 20.84355798 15.85746911 28 19 C28.76828125 19.34417969 29.5365625 19.68835938 30.328125 20.04296875 C35.99104191 22.15171228 41.58765351 22.27213331 47.5625 22.3125 C48.35406494 22.31813965 49.14562988 22.3237793 49.96118164 22.32958984 C63.89987264 22.15909482 76.02910025 17.47120108 87 9 C87.969375 8.278125 88.93875 7.55625 89.9375 6.8125 C91.96846388 5.02771356 93.48500441 3.23262508 95 1 C99.16077772 2.27079636 102.74479974 3.82976691 106.5 6.01953125 C107.54236816 6.624021 108.58473633 7.22851074 109.65869141 7.85131836 C110.76132324 8.4985083 111.86395508 9.14569824 113 9.8125 C114.13743652 10.47451416 115.27487305 11.13652832 116.44677734 11.81860352 C119.96967087 13.87032477 123.48570397 15.93359492 127 18 C128.11020508 18.65258789 129.22041016 19.30517578 130.36425781 19.97753906 C136.58419482 23.63820184 142.79629559 27.31189679 149 31 C147.77874591 34.72889582 146.47157518 38.40116811 145.0625 42.0625 C141.03293169 53.2873718 139.48390022 63.84251333 139.55395508 75.68310547 C139.56246695 77.86652121 139.53357536 80.04730888 139.50195312 82.23046875 C139.43967833 94.67631838 141.93202491 105.74918258 146.8125 117.25 C149.11056377 122.6683087 149.11056377 122.6683087 148 126 C145.86132812 127.46704102 145.86132812 127.46704102 143.03125 129.00390625 C141.99299072 129.57496094 140.95473145 130.14601563 139.88500977 130.734375 C138.76795654 131.33765625 137.65090332 131.9409375 136.5 132.5625 C134.2062503 133.82279845 131.91328375 135.08452327 129.62109375 136.34765625 C128.49171387 136.96785645 127.36233398 137.58805664 126.19873047 138.22705078 C121.94601359 140.58418938 117.74574191 143.02215531 113.5625 145.5 C112.54603394 146.09820557 112.54603394 146.09820557 111.5090332 146.70849609 C108.60404289 148.4249988 105.73132356 150.17070045 102.8828125 151.98046875 C101.54863281 152.82544922 101.54863281 152.82544922 100.1875 153.6875 C99.09501953 154.40486328 99.09501953 154.40486328 97.98046875 155.13671875 C96 156 96 156 94.015625 155.90625 C91.29528601 154.68315185 89.66225379 152.92641739 87.5625 150.8125 C81.97944525 145.63294036 76.06991773 142.70344479 69 140 C68.32936523 139.73219727 67.65873047 139.46439453 66.96777344 139.18847656 C61.05652455 136.98778585 55.65749552 136.45684795 49.375 136.5 C48.41368164 136.50499512 47.45236328 136.50999023 46.46191406 136.51513672 C30.44418257 136.90313723 16.26970268 143.59218822 5 155 C4.34 155.99 3.68 156.98 3 158 C2.34 158 1.68 158 1 158 C-2.17537154 148.81169086 -4.68026529 139.57692922 -6.6875 130.0625 C-6.88947998 129.1240625 -7.09145996 128.185625 -7.29956055 127.21875 C-10.62905485 110.93814584 -11.37561056 94.94894607 -11.3125 78.375 C-11.31034485 77.35709381 -11.3081897 76.33918762 -11.30596924 75.29043579 C-11.21704316 49.13562992 -7.37422625 25.12176599 0 0 Z " fill="#6A5CB5" transform="translate(11,178)"/>
<path d="M0 0 C58.71496338 -2.50442972 120.39665232 25.39562001 163.1875 64.5 C168.92044186 69.8548609 174.63430989 75.2751889 180 81 C180 81.33 180 81.66 180 82 C179.29617188 82.13535156 178.59234375 82.27070312 177.8671875 82.41015625 C161.27468694 86.02758131 147.62640613 94.23525947 138.0625 108.375 C129.99016134 122.13152823 126.66545647 137.61116472 129.63671875 153.37890625 C130.13482239 155.16479004 130.66568429 156.94226924 131.24609375 158.703125 C132.03846391 161.11718539 132.52090491 163.5071559 133 166 C124.05125827 171.58818874 114.99266547 176.92811395 105.8125 182.125 C104.0106296 183.14665152 102.20917227 184.16900932 100.40866089 185.1930542 C98.68252543 186.1737268 96.95383815 187.14990347 95.22509766 188.12597656 C91.4233437 190.33508052 87.74114964 192.70654641 84.0925293 195.15966797 C82 196 82 196 79.83984375 195.27807617 C77.46944242 193.6314399 76.03840551 191.7495621 74.3125 189.4375 C55.49257734 165.36871818 29.6534577 154.23620824 0 150 C0 140.1 0 130.2 0 120 C2.97 119.01 2.97 119.01 6 118 C21.82004387 112.57772566 35.25253362 104.70510033 43.65234375 89.75390625 C50.96266665 74.81542032 54.38347353 58.10787406 48.875 41.9375 C42.48942797 25.31360857 31.5805258 12.978628 15.5 5.1875 C10.44839261 2.99678867 5.4366432 1.7901412 0 1 C0 0.67 0 0.34 0 0 Z " fill="#6E61B6" transform="translate(264,0)"/>
<path d="M0 0 C3.63632623 1.37448867 6.97064121 3.00434858 10.359375 4.90625 C11.38498535 5.48068848 12.4105957 6.05512695 13.46728516 6.64697266 C15.092229 7.56422119 15.092229 7.56422119 16.75 8.5 C17.86294434 9.12567871 18.97588867 9.75135742 20.12255859 10.39599609 C28.55303309 15.14930993 36.91407797 20.01016937 45.23144531 24.95800781 C48.13671843 26.66972864 51.06812302 28.3343321 54 30 C53.35006628 33.75593278 52.24137924 37.11234725 50.9375 40.6875 C46.12045606 56.19345897 48.6371667 72.46719871 55.90209961 86.77685547 C64.83177727 103.08204479 79.67072193 111.59596726 97 117 C61.45077086 159.84137871 5.06131787 185.45931394 -49 194 C-49.73718262 194.11714355 -50.47436523 194.23428711 -51.23388672 194.35498047 C-60.53072964 195.78444706 -69.59923677 196.26439647 -79 196 C-79 195.67 -79 195.34 -79 195 C-77.67548828 194.67128906 -77.67548828 194.67128906 -76.32421875 194.3359375 C-59.98172709 190.0177281 -46.11074555 181.7464879 -37 167 C-34.72071119 162.42036659 -32.79122822 157.7956845 -31 153 C-30.73058594 152.29101562 -30.46117187 151.58203125 -30.18359375 150.8515625 C-25.99105051 137.42369675 -29.39328877 121.50593534 -35 109 C-43.63618098 92.91428887 -56.65079155 83.3896129 -74 78 C-75.98 77.67 -77.96 77.34 -80 77 C-80 66.77 -80 56.54 -80 46 C-75.71 45.34 -71.42 44.68 -67 44 C-64.19155846 43.35535772 -61.4967244 42.70040983 -58.75 41.875 C-58.04601074 41.66399658 -57.34202148 41.45299316 -56.61669922 41.2355957 C-33.55528772 33.98385281 -14.26607139 19.54317616 0 0 Z " fill="#6E61B6" transform="translate(344,316)"/>
<path d="M0 0 C1.06099328 1.73835057 2.09826483 3.49119804 3.125 5.25 C3.70507812 6.22453125 4.28515625 7.1990625 4.8828125 8.203125 C6 11 6 11 5.65625 13.0859375 C3.09328784 16.04785132 -0.20067144 17.59516052 -3.625 19.375 C-5.25015941 20.24728253 -6.87377401 21.12244739 -8.49609375 22 C-9.37507324 22.474375 -10.25405273 22.94875 -11.15966797 23.4375 C-16.39330771 26.31658667 -21.53618952 29.35183404 -26.6875 32.375 C-29.61442816 34.0906252 -32.54139408 35.80616221 -35.47021484 37.51855469 C-37.04627336 38.4414965 -38.61995809 39.36851913 -40.18994141 40.30175781 C-44.77979587 43 -44.77979587 43 -47 43 C-46.65066406 43.9178125 -46.30132812 44.835625 -45.94140625 45.78125 C-41.17826916 58.6268775 -41.17826916 58.6268775 -41 65 C-40.938125 66.10859375 -40.87625 67.2171875 -40.8125 68.359375 C-40.51961915 77.32885093 -41.6718583 84.67442923 -45 93 C-45.40089844 94.00804687 -45.80179687 95.01609375 -46.21484375 96.0546875 C-53.05235561 111.31522122 -65.5885707 121.82851184 -80.9375 127.9375 C-97.15544994 133.92217912 -113.43869633 132.07640527 -129 125 C-143.27622059 117.49118122 -153.65884633 105.31468232 -159 90 C-163.60742812 74.64745069 -162.43396255 57.00956867 -155.3515625 42.66015625 C-148.14013127 29.67013275 -136.11014861 18.93296752 -122 14 C-120.9169458 13.61702759 -120.9169458 13.61702759 -119.81201172 13.22631836 C-113.60192427 11.17602509 -107.90215709 10.42002279 -101.375 10.4375 C-99.94365723 10.44112549 -99.94365723 10.44112549 -98.48339844 10.44482422 C-85.51334656 10.77744539 -71.4116778 15.77468934 -61.98046875 24.96875 C-60.81171845 26.20885558 -59.67017296 27.47575008 -58.5703125 28.77734375 C-57.79300781 29.38255859 -57.79300781 29.38255859 -57 30 C-53.60480521 29.5113892 -50.94681517 28.00093083 -47.984375 26.33203125 C-46.99123291 25.77475342 -45.99809082 25.21747559 -44.97485352 24.64331055 C-43.91065186 24.03914307 -42.8464502 23.43497559 -41.75 22.8125 C-40.65421631 22.19479736 -39.55843262 21.57709473 -38.42944336 20.94067383 C-27.56622568 14.7970854 -16.78766098 8.50880201 -6.03344727 2.17651367 C-2.27163312 0 -2.27163312 0 0 0 Z " fill="#FEC145" transform="translate(161,303)"/>
<path d="M0 0 C3.69041707 2.59126507 6.9810883 5.52050066 10.2421875 8.62890625 C12.50444236 10.82886041 12.50444236 10.82886041 15.09765625 12.71484375 C23.56790794 19.89348403 27.81285065 32.53540106 28.75439453 43.33740234 C29.39052358 54.62620037 29.19049885 65.29038239 24.53125 75.77734375 C24.13035156 76.70289063 23.72945313 77.6284375 23.31640625 78.58203125 C15.62339812 94.3248247 2.59959419 103.85026765 -13.5234375 109.83203125 C-28.82984434 114.74469764 -45.06073951 112.16229822 -59.33203125 105.42578125 C-74.64082062 96.90238063 -85.40774069 82.88379314 -90.34375 66.15234375 C-94.3411398 47.88882028 -90.40296912 31.47586285 -80.46875 15.77734375 C-62.4376382 -9.64096364 -26.36181173 -15.60269881 0 0 Z " fill="#FEC145" transform="translate(483.46875,322.22265625)"/>
<path d="M0 0 C11.29362171 9.64131205 20.15160481 23.28269789 21.49829102 38.37451172 C22.24259454 55.36865196 20.47291789 69.67550559 10.27734375 83.8984375 C-2.13795578 97.11992531 -16.65591437 106.19305094 -35.03515625 107.171875 C-50.63032382 107.64762044 -62.94755979 104.32616209 -75.72265625 94.8984375 C-76.36589844 94.43824219 -77.00914062 93.97804688 -77.671875 93.50390625 C-88.01791152 85.43632272 -96.17253749 71.42513326 -98.4765625 58.52734375 C-100.13287158 40.83375625 -97.65976211 23.86965883 -86.171875 9.58984375 C-77.66056851 -0.33823268 -68.05587608 -6.77055526 -55.72265625 -11.1015625 C-54.66884766 -11.4728125 -54.66884766 -11.4728125 -53.59375 -11.8515625 C-34.8571547 -17.13154239 -15.04115071 -11.60995564 0 0 Z " fill="#FE7A7A" transform="translate(490.72265625,94.1015625)"/>
<path d="M0 0 C11.92334471 9.20948854 18.63314131 21.26876652 22.24169922 35.76416016 C22.43505859 36.39966797 22.62841797 37.03517578 22.82763672 37.68994141 C25.84553288 52.80789295 21.54454472 68.85927655 13.30419922 81.57666016 C12.30147136 82.98555626 11.2814115 84.38233175 10.24169922 85.76416016 C9.79181641 86.37904297 9.34193359 86.99392578 8.87841797 87.62744141 C-0.0000293 98.90682089 -14.73402477 106.04460069 -28.75830078 107.76416016 C-47.69879014 109.20440138 -62.55870137 104.99801543 -77.50830078 92.82666016 C-84.941126 86.06793365 -89.81696678 79.04421022 -93.75830078 69.76416016 C-94.10119141 68.95849609 -94.44408203 68.15283203 -94.79736328 67.32275391 C-99.35804007 54.04564344 -98.40183137 36.46652681 -92.75830078 23.76416016 C-92.35740234 22.83861328 -91.95650391 21.91306641 -91.54345703 20.95947266 C-83.8504489 5.21667921 -70.82664497 -4.30876374 -54.70361328 -10.29052734 C-36.0201542 -16.28707522 -15.71954366 -11.04864344 0 0 Z " fill="#4BCC5C" transform="translate(96.75830078125,93.23583984375)"/>
<path d="M0 0 C10.50869033 7.75823742 18.39347758 17.7585932 23 30 C23.2990625 30.69867188 23.598125 31.39734375 23.90625 32.1171875 C28.59527872 44.66468103 27.08782687 59.89065505 22 72 C21.57589844 73.02609375 21.15179688 74.0521875 20.71484375 75.109375 C17.30687598 82.5898168 12.82049776 88.24164279 7 94 C6.48179687 94.55171875 5.96359375 95.1034375 5.4296875 95.671875 C-5.48281882 106.29871361 -20.83618505 110.38692487 -35.56347656 110.29907227 C-52.20062786 109.87383573 -66.45927659 102.86249079 -78 91 C-78.54914063 90.48308594 -79.09828125 89.96617188 -79.6640625 89.43359375 C-83.44760148 85.55900704 -85.80083361 80.90280077 -88.25 76.125 C-88.5917627 75.46491943 -88.93352539 74.80483887 -89.28564453 74.12475586 C-95.37490437 61.74750847 -96.16799385 46.2122619 -92.375 33 C-88.47937371 22.2904211 -83.02282533 14.0643227 -75 6 C-74.39671875 5.36191406 -73.7934375 4.72382813 -73.171875 4.06640625 C-53.72026115 -14.92006031 -21.75375337 -14.12541246 0 0 Z " fill="#4BCC5C" transform="translate(290,10)"/>
<path d="M0 0 C8.92732593 7.65630751 15.4784431 16.44870387 19.69140625 27.44921875 C20.08328125 28.45984375 20.47515625 29.47046875 20.87890625 30.51171875 C25.51467001 47.27178773 22.38406912 63.44029629 14.45703125 78.59375 C11.45320663 83.45170531 7.74206624 87.44883291 3.69140625 91.44921875 C3.15 92.01253906 2.60859375 92.57585937 2.05078125 93.15625 C-8.77467396 103.51697608 -24.3561314 107.96547682 -38.97314453 107.79882812 C-55.57164809 107.25231455 -69.78454881 100.29456605 -81.30859375 88.44921875 C-81.85773438 87.93230469 -82.406875 87.41539062 -82.97265625 86.8828125 C-90.93215524 78.73177476 -96.6256702 65.71745736 -97.30859375 54.44921875 C-97.34952148 53.81902832 -97.39044922 53.18883789 -97.43261719 52.53955078 C-98.38368876 35.7464565 -94.19562262 21.05072501 -82.93359375 8.19921875 C-81.40800827 6.60038496 -79.86719656 5.0158833 -78.30859375 3.44921875 C-77.7053125 2.81113281 -77.10203125 2.17304688 -76.48046875 1.515625 C-56.31900393 -18.16371784 -21.24913439 -17.09459511 0 0 Z " fill="#FE7A7A" transform="translate(293.30859375,404.55078125)"/>
<path d="M0 0 C0 3.32548922 -0.60893589 4.39401324 -2.1875 7.25 C-13.2928942 28.92444834 -16.39665069 58.46555387 -9.64257812 82.01757812 C-6.15928343 92.76391283 -1.44259395 102.98693152 4.5546875 112.5546875 C5.03164062 113.36164063 5.50859375 114.16859375 6 115 C6.45632812 115.72445312 6.91265625 116.44890625 7.3828125 117.1953125 C8.08022811 120.36458089 7.68897846 121.34880083 6.64453125 124.34765625 C4.52200405 130.66835708 4.5810394 136.78868422 4.66381836 143.40698242 C4.68774562 145.45856043 4.68431576 147.50886159 4.67773438 149.56054688 C4.39661131 156.67429162 4.39661131 156.67429162 7 163 C10.02804418 163.30729403 12.85276013 163.41965186 15.88427734 163.40405273 C16.80473343 163.41091599 17.72518951 163.41777924 18.67353821 163.42485046 C21.72782658 163.44320837 24.78160559 163.43926769 27.8359375 163.43359375 C29.95342172 163.43815175 32.07090445 163.44345617 34.18838501 163.44947815 C38.63216144 163.45842731 43.07575835 163.45596621 47.51953125 163.44604492 C53.21849246 163.43456225 58.91683343 163.45474709 64.61571312 163.48396206 C68.99087472 163.50229771 73.36588705 163.50203668 77.74107742 163.49632454 C79.84225966 163.49617095 81.94345179 163.50224602 84.04459763 163.51461601 C86.98243968 163.52947156 89.91912797 163.5188882 92.85693359 163.50170898 C93.72773056 163.51137695 94.59852753 163.52104492 95.49571228 163.53100586 C100.34621994 163.53633364 100.34621994 163.53633364 104.35635376 161.01649475 C104.89875702 160.35105148 105.44116028 159.68560822 106 159 C108.57623176 158.42685423 110.95683032 158.04068065 113.5625 157.75 C123.16763191 156.41144164 131.46066587 152.78959576 140.18505859 148.68676758 C142 148 142 148 145 148 C139.12250816 165.05084871 119.50511836 179.38999782 103.81738281 187.2902832 C94.84365291 191.59713867 85.61801012 194.50723431 76 197 C75.41524902 197.17813232 74.83049805 197.35626465 74.22802734 197.53979492 C57.29208385 201.03795989 34.94435008 199.45865382 19 193 C17.81712402 192.52530273 17.81712402 192.52530273 16.61035156 192.04101562 C-4.08753849 183.47468352 -23.46220647 169.614249 -35 150 C-35.34869141 149.41444336 -35.69738281 148.82888672 -36.05664062 148.22558594 C-50.30918531 123.95741148 -55.93234537 94.24537531 -49.51464844 66.4831543 C-48.51940342 62.91128831 -47.36456172 59.44721956 -46 56 C-45.53078125 54.81148437 -45.0615625 53.62296875 -44.578125 52.3984375 C-43.17650169 49.18073237 -41.65148849 46.0960337 -40 43 C-39.46503906 41.98550781 -38.93007812 40.97101563 -38.37890625 39.92578125 C-29.04916718 23.09777614 -15.7470092 10.66440104 0 0 Z " fill="#00A3FA" transform="translate(201,164)"/>
<path d="M0 0 C58.71496338 -2.50442972 120.39665232 25.39562001 163.1875 64.5 C168.92044186 69.8548609 174.63430989 75.2751889 180 81 C180 81.33 180 81.66 180 82 C179.29617188 82.13535156 178.59234375 82.27070312 177.8671875 82.41015625 C162.66798843 85.72381976 148.50497939 93.13270717 139.6640625 106.33984375 C138.84035156 107.65662109 138.84035156 107.65662109 138 109 C134.97202152 107.65491756 133.00049732 106.18450001 130.74609375 103.76953125 C127.1075595 100.02844857 123.21939212 96.83355786 119.0625 93.6875 C117.95769287 92.84892456 117.95769287 92.84892456 116.83056641 91.9934082 C109.50358008 86.50950691 101.90213963 81.60806298 94 77 C93.41105957 76.65130859 92.82211914 76.30261719 92.21533203 75.94335938 C79.93160204 68.74314555 65.90428702 62.18802719 52 59 C51.91363281 58.21238281 51.82726562 57.42476562 51.73828125 56.61328125 C49.60853554 40.1028673 43.01797272 24.81387152 30 14 C21.10688618 7.33364394 11.06089169 2.55414622 0 1 C0 0.67 0 0.34 0 0 Z " fill="#6354B1" transform="translate(264,0)"/>
<path d="M0 0 C-2.98988957 1.58206278 -5.98645763 2.72700944 -9.1875 3.8125 C-24.84505813 9.50238187 -36.74099037 20.13650291 -44.25 35.0625 C-46.29591846 39.56246055 -47.30526419 43.51661521 -47.86572266 48.36474609 C-48.92363962 57.07712064 -48.92363962 57.07712064 -52.109375 59.80859375 C-54.69029133 60.86210338 -57.25541167 61.66028718 -59.94628906 62.38037109 C-64.17645147 63.65666118 -68.19878727 65.49960199 -72.25 67.25 C-73.15959473 67.63945801 -74.06918945 68.02891602 -75.00634766 68.43017578 C-95.80609093 77.45857476 -115.88667015 90.49327025 -131.734375 106.81640625 C-134 109 -134 109 -136 109 C-137.4453125 107.27734375 -137.4453125 107.27734375 -139.125 104.9375 C-148.73886988 92.40618285 -162.58325419 85.13560932 -178 82 C-168.34645606 70.13993173 -157.26289661 60.0782142 -145 51 C-144.42636719 50.57090332 -143.85273438 50.14180664 -143.26171875 49.69970703 C-134.52543603 43.18940154 -125.48314179 37.36072565 -116 32 C-115.29278809 31.5978125 -114.58557617 31.195625 -113.85693359 30.78125 C-80.11776755 11.78581013 -39.05436115 -1.22257131 0 0 Z " fill="#6254B1" transform="translate(246,0)"/>
<path d="M0 0 C0.42120117 0.36206543 0.84240234 0.72413086 1.27636719 1.09716797 C3.1824347 2.73356846 5.09099411 4.36702855 7 6 C7.58458984 6.50176758 8.16917969 7.00353516 8.77148438 7.52050781 C23.80056249 20.33645741 40.03825335 30.77474587 58 39 C58.61214355 39.28069336 59.22428711 39.56138672 59.85498047 39.85058594 C67.74135749 43.42630508 75.73450728 46.42649494 84 49 C84.12375 50.0415625 84.2475 51.083125 84.375 52.15625 C86.84411595 70.22414408 94.19312466 83.90316356 108.25 95.75 C116.49983378 101.84019143 125.84813706 105.67086219 136 107 C136 107.33 136 107.66 136 108 C75.43515805 110.54711952 14.40979347 81.24074984 -29.5625 41.28515625 C-33.47226108 37.61975524 -37.25176545 33.82971791 -41 30 C-38.7387712 27.7387712 -36.67808423 27.10671111 -33.69360352 26.09863281 C-19.03889402 21.12251196 -9.12897319 12.43822597 0 0 Z " fill="#6354B1" transform="translate(112,404)"/>
<path d="M0 0 C1.26171875 1.72265625 1.26171875 1.72265625 2.6875 4.0625 C11.57996562 17.67775837 24.88101103 24.28523282 40 29 C4.45077086 71.84137871 -51.93868213 97.45931394 -106 106 C-106.73718262 106.11714355 -107.47436523 106.23428711 -108.23388672 106.35498047 C-117.53072964 107.78444706 -126.59923677 108.26439647 -136 108 C-136 107.67 -136 107.34 -136 107 C-135.11699219 106.78085937 -134.23398437 106.56171875 -133.32421875 106.3359375 C-116.93568655 102.00556272 -103.18891678 93.72929308 -94 79 C-88.84694956 69.30157016 -86.59241793 59.75580534 -85 49 C-83.13021484 48.38125 -83.13021484 48.38125 -81.22265625 47.75 C-52.23778374 37.99475914 -26.35760843 23.30134437 -4.2578125 1.984375 C-2 0 -2 0 0 0 Z " fill="#6354B1" transform="translate(401,404)"/>
<path d="M0 0 C1.62307823 -0.02882263 1.62307823 -0.02882263 3.27894592 -0.05822754 C5.02116676 -0.07097717 5.02116676 -0.07097717 6.79858398 -0.08398438 C8.00602768 -0.09538452 9.21347137 -0.10678467 10.45750427 -0.11853027 C13.01362618 -0.1374113 15.56979656 -0.15049072 18.12597656 -0.15820312 C22.00666188 -0.1775449 25.88519574 -0.23957373 29.76538086 -0.30273438 C32.25560273 -0.31580288 34.74583968 -0.32630051 37.23608398 -0.33398438 C38.38339493 -0.35867798 39.53070587 -0.38337158 40.71278381 -0.40881348 C49.73663054 -0.35975808 57.6112756 2.00707911 64.48634338 8.09777832 C72.91216502 17.10746227 73.71180549 26.86541502 73.77734375 38.64892578 C73.78890053 40.09791805 73.80941069 41.54686654 73.83886719 42.99560547 C73.88150947 45.09436824 73.89770203 47.19187373 73.90795898 49.29101562 C73.9225415 50.54333984 73.93712402 51.79566406 73.95214844 53.0859375 C73.48217773 56.32226562 73.48217773 56.32226562 72.02325439 58.4921875 C68.24589739 61.21263216 64.90385669 60.88221697 60.35498047 60.83984375 C58.97144882 60.85035767 58.97144882 60.85035767 57.55996704 60.86108398 C54.51159552 60.87868752 51.46415242 60.86703366 48.41577148 60.85351562 C46.29875002 60.85620962 44.18172975 60.86009127 42.06471252 60.8651123 C37.62863378 60.87101037 33.19287723 60.86243343 28.75683594 60.84375 C23.06453314 60.82094658 17.3729841 60.83409072 11.68070889 60.85803986 C7.30986323 60.8724775 2.93919701 60.86790139 -1.43165398 60.85752869 C-3.53086371 60.8548565 -5.63008963 60.85814836 -7.72928047 60.8674469 C-10.65996748 60.87758043 -13.58942441 60.86215671 -16.52001953 60.83984375 C-17.39126968 60.84794067 -18.26251984 60.8560376 -19.16017151 60.86437988 C-25.00944335 60.78167126 -25.00944335 60.78167126 -27.55592346 58.48049927 C-28.89320757 55.48000532 -28.90678872 53.00174304 -28.91625977 49.72070312 C-28.92012695 48.42519531 -28.92399414 47.1296875 -28.92797852 45.79492188 C-28.92169434 45.12090332 -28.91541016 44.44688477 -28.90893555 43.75244141 C-28.89303369 41.72423245 -28.90870992 39.69806479 -28.92797852 37.66992188 C-28.89462858 26.43099288 -27.72814688 16.58578889 -19.51782227 8.32226562 C-13.53505321 3.57403622 -7.7786812 0.11210726 0 0 Z " fill="#FCF4F5" transform="translate(233.517822265625,267.677734375)"/>
<path d="M0 0 C0.66 0.33 1.32 0.66 2 1 C1.49339844 1.96099609 1.49339844 1.96099609 0.9765625 2.94140625 C0.53054687 3.80636719 0.08453125 4.67132813 -0.375 5.5625 C-0.81585937 6.40941406 -1.25671875 7.25632812 -1.7109375 8.12890625 C-4.33146379 13.96553299 -5.32741636 19.51600231 -5.40625 25.875 C-5.41765015 26.60315918 -5.42905029 27.33131836 -5.4407959 28.08154297 C-5.45956508 29.61094461 -5.47271137 31.14042474 -5.48046875 32.66992188 C-5.49995747 34.99492647 -5.56213115 37.31644236 -5.625 39.640625 C-6.01148185 48.54938879 -6.01148185 48.54938879 -2.15625 56.25 C-1.11552804 57.17954554 -0.06466302 58.09797463 1 59 C2.03385614 60.64587948 3.03929055 62.31038018 4 64 C12.79083377 76.70938939 25.3149957 85.22318413 40.25 89.375 C53.8228827 91.73226482 65.26381683 89.60799035 78 85 C79.32700969 84.64232115 80.65748975 84.2942025 82 84 C79.3963649 93.25736925 70.79996946 99.23399779 63 104 C49.10866938 111.73331808 32.54187126 114.92839965 16.8125 111.12890625 C0.55472944 106.04835295 -14.25189724 95.45301465 -22.25 80.1875 C-23.19904403 78.13969643 -24.11769344 76.0774309 -25 74 C-25.34289062 73.19433594 -25.68578125 72.38867188 -26.0390625 71.55859375 C-30.59973929 58.28148328 -29.64353059 40.70236666 -24 28 C-23.59910156 27.07445313 -23.19820312 26.14890625 -22.78515625 25.1953125 C-17.81921765 15.0331309 -9.59817047 5.97219496 0 0 Z " fill="#00C43B" transform="translate(28,89)"/>
<path d="M0 0 C-0.19335938 0.56847656 -0.38671875 1.13695312 -0.5859375 1.72265625 C-0.84632813 2.49480469 -1.10671875 3.26695313 -1.375 4.0625 C-1.75785156 5.19365234 -1.75785156 5.19365234 -2.1484375 6.34765625 C-2.42945313 7.22292969 -2.71046875 8.09820312 -3 9 C-3.33845947 10.05251953 -3.67691895 11.10503906 -4.02563477 12.18945312 C-5.5465727 18.13753613 -5.48669267 24.0859344 -5.53540039 30.18774414 C-5.5624078 32.42984582 -5.63744775 34.66727948 -5.71289062 36.90820312 C-5.96344843 46.02721216 -5.96344843 46.02721216 -1.578125 53.79296875 C-0.95454102 54.34106201 -0.33095703 54.88915527 0.31152344 55.45385742 C2.16409045 57.15025807 2.89214539 58.56075741 3.8125 60.875 C9.19396185 72.48162747 21.89107231 80.03553502 33.1875 84.9375 C47.22304778 89.61601593 64.44391532 88.83103172 78 83 C79.66666667 82.33333333 81.33333333 81.66666667 83 81 C80.82705054 85.75728255 77.56259578 89.22407513 74 93 C73.44699219 93.59167969 72.89398438 94.18335937 72.32421875 94.79296875 C60.91558848 105.84745085 45.93187665 110.39150659 30.43652344 110.29907227 C13.79937214 109.87383573 -0.45927659 102.86249079 -12 91 C-12.54914063 90.48308594 -13.09828125 89.96617188 -13.6640625 89.43359375 C-17.44760148 85.55900704 -19.80083361 80.90280077 -22.25 76.125 C-22.5917627 75.46491943 -22.93352539 74.80483887 -23.28564453 74.12475586 C-29.37490437 61.74750847 -30.16799385 46.2122619 -26.375 33 C-23.01128316 23.75270876 -11.8475413 0 0 0 Z " fill="#01C43C" transform="translate(224,10)"/>
<path d="M0 0 C-0.19335938 0.56847656 -0.38671875 1.13695312 -0.5859375 1.72265625 C-0.84632813 2.49480469 -1.10671875 3.26695312 -1.375 4.0625 C-1.75785156 5.19365234 -1.75785156 5.19365234 -2.1484375 6.34765625 C-2.42945313 7.22292969 -2.71046875 8.09820312 -3 9 C-3.35578125 10.01707031 -3.7115625 11.03414063 -4.078125 12.08203125 C-8.4340366 27.616998 -5.30513315 45.20442391 2.0625 59.125 C6.91307282 66.98376068 13.37851687 74.28708338 21.625 78.625 C23.546875 79.68359375 23.546875 79.68359375 25 81 C25.69714139 83.41874054 25.87563506 85.49856859 25.8671875 88.01171875 C25.79657532 90.23551297 25.79657532 90.23551297 28 92 C31.37306618 92.58414702 31.37306618 92.58414702 35 92 C35.64453125 91.16597656 36.2890625 90.33195312 36.953125 89.47265625 C41.73649781 85.59076524 46.49647357 86.68149125 52.4375 87 C62.950352 87.32015884 70.49902431 86.43378866 80 82 C80.66 82 81.32 82 82 82 C78.64966481 92.33020018 67.898178 99.57373137 58.59375 104.33984375 C44.81513964 110.70496267 29.65215331 112.42930447 14.96484375 108.09765625 C4.42455532 104.19538873 -4.11864079 99.10109971 -12 91 C-12.54914063 90.48308594 -13.09828125 89.96617187 -13.6640625 89.43359375 C-21.62356149 81.28255601 -27.31707645 68.26823861 -28 57 C-28.0613916 56.05471436 -28.0613916 56.05471436 -28.12402344 55.09033203 C-29.07756308 38.25365896 -24.85982265 23.56029961 -13.5625 10.6875 C-3.47159091 0 -3.47159091 0 0 0 Z " fill="#FD5758" transform="translate(224,402)"/>
<path d="M0 0 C0 3.16129837 -0.81597874 5.06419732 -2.1484375 7.890625 C-7.23454976 20.48925169 -7.56545275 38.98494544 -2.2578125 51.51171875 C-1.84273438 52.33285156 -1.42765625 53.15398437 -1 54 C-0.56429688 54.93457031 -0.12859375 55.86914062 0.3203125 56.83203125 C6.21706659 68.60942807 15.07350814 77.3376518 27 83 C26.9071875 84.36125 26.9071875 84.36125 26.8125 85.75 C26.81419008 88.92872792 26.81419008 88.92872792 28 91.375 C30.69187709 93.56215014 32.67824075 93.47997334 36.0625 93.53125 C38.20361966 93.17217907 38.20361966 93.17217907 39.33984375 90.98461914 C41 89 41 89 43.09375 88.59350586 C43.8878125 88.63354736 44.681875 88.67358887 45.5 88.71484375 C46.38204102 88.74352539 47.26408203 88.77220703 48.17285156 88.80175781 C49.10581055 88.84655273 50.03876953 88.89134766 51 88.9375 C61.98596707 89.20181842 70.35283551 87.59786148 80.22265625 82.671875 C80.80917969 82.45015625 81.39570313 82.2284375 82 82 C82.66 82.33 83.32 82.66 84 83 C77.12351809 95.66720351 63.21438906 104.15763946 50.08203125 109.09765625 C34.3375648 113.70725289 17.24062683 112.04183692 2.875 104.3203125 C0.1501941 102.65433063 -2.43103653 100.89583539 -5 99 C-5.64324219 98.53980469 -6.28648437 98.07960938 -6.94921875 97.60546875 C-17.29525527 89.53788522 -25.44988124 75.52669576 -27.75390625 62.62890625 C-29.40922764 44.94586984 -26.97908004 27.80475997 -15.34375 13.62109375 C-10.76729346 8.36596906 -5.94153493 3.69695507 0 0 Z " fill="#FD5758" transform="translate(420,90)"/>
<path d="M0 0 C5.62048298 4.88094575 9.56532267 11.69685745 10.3137207 19.15136719 C10.94454552 31.39505173 11.16499122 42.7528863 3.46875 52.93359375 C-1.60238961 58.50486869 -8.58495531 62.43670644 -16.14453125 63.078125 C-26.56004966 63.35361175 -33.78699225 61.74213684 -41.734375 54.6796875 C-49.00116334 46.51746553 -50.36202337 38.79943943 -50.421875 28.1171875 C-50.42823975 27.13105469 -50.43460449 26.14492187 -50.44116211 25.12890625 C-50.27302126 15.4855816 -47.65015553 7.88400875 -40.921875 0.8046875 C-28.14038025 -9.89389699 -13.33039025 -9.36856098 0 0 Z " fill="#FDF4F5" transform="translate(275.921875,191.1953125)"/>
<path d="M0 0 C4.91785714 1.36607143 4.91785714 1.36607143 6.375 3.9375 C6.79806691 8.06978143 6.86047098 10.2148912 4.51171875 13.7109375 C3.70347656 14.56945312 2.89523438 15.42796875 2.0625 16.3125 C-4.91462631 24.39762908 -6.24390507 30.85311223 -5.96875 41.50390625 C-5.07572911 50.42396721 -1.07097172 56.8574568 5.375 62.9375 C13.59637248 69.44608655 22.18932192 69.83456641 32.375 68.9375 C40.26786532 67.12939505 46.95593125 62.70995013 51.6875 56.10546875 C56.9755977 47.18180388 57.41739023 38.46083817 56.015625 28.34375 C54.39067936 22.28314194 50.47428424 18.21042393 46.23828125 13.7109375 C43.88087497 10.20200992 43.91076375 8.08630608 44.375 3.9375 C46.40335341 0.89496989 47.62416273 0.10435273 51.1875 -0.6875 C56.84328512 0.42147747 59.83874486 3.90422113 63.234375 8.3984375 C72.02144507 21.50393945 74.50645177 34.11992422 71.71484375 49.59765625 C68.32847683 61.89705819 61.5879246 72.26295003 50.41015625 78.625 C37.69338578 85.16415515 24.86706536 87.34753638 10.71875 84.09765625 C7.73159861 82.93030893 5.11379755 81.60353412 2.375 79.9375 C0.94800781 79.08285156 0.94800781 79.08285156 -0.5078125 78.2109375 C-11.24767 71.0998057 -18.83175132 60.58399747 -21.625 47.9375 C-23.53640682 31.44582909 -20.57278306 19.70546415 -10.6875 6.3125 C-5.12879973 -0.08842758 -5.12879973 -0.08842758 0 0 Z " fill="#FFF3F0" transform="translate(34.625,334.0625)"/>
<path d="M0 0 C4.84559402 1.58413651 4.84559402 1.58413651 6.25 4.0625 C6.9375 7.1875 6.9375 7.1875 6.25 11.0625 C4.40576672 13.45171948 2.36905659 15.57610499 0.296875 17.76953125 C-5.80538042 24.60545478 -6.61177978 32.16175499 -6.1875 41.05078125 C-5.48295578 49.28024917 -2.48617944 55.85937983 3.5 61.5625 C12.65774818 68.76859693 20.57375079 70.27253865 32.25 69.0625 C40.70852491 67.14114152 47.03016649 62.50697104 52.078125 55.5390625 C56.98295814 47.17334242 57.74575405 38.51711308 56.25 29.0625 C54.53983946 23.2494543 51.55907421 19.28525816 47.4375 14.9375 C44.91040439 12.21728573 43.74011633 10.50043718 43.5625 6.75 C44.25 3.0625 44.25 3.0625 45.875 1.0625 C49.14851483 -0.31582203 50.70738625 -0.61877187 54.25 0.0625 C63.16940806 5.62821063 69.20729759 16.17738301 71.80859375 26.21875 C73.93568712 39.92250196 72.54556815 52.80450162 65.046875 64.609375 C56.89311907 75.7410244 46.78915164 82.41659511 33.25 85.0625 C20.01213806 86.59855159 8.30331042 84.82404036 -2.625 76.6875 C-4.01714458 75.49895975 -5.39325767 74.29129807 -6.75 73.0625 C-7.37519531 72.54042969 -8.00039063 72.01835937 -8.64453125 71.48046875 C-15.53806615 65.30782639 -21.01621095 55.07654797 -21.98510742 45.81518555 C-22.5852241 34.73619136 -22.5448364 24.8527236 -16.75 15.0625 C-16.28078125 14.23492187 -15.8115625 13.40734375 -15.328125 12.5546875 C-11.64240433 6.55052964 -7.5200519 0.1253342 0 0 Z " fill="#FFF4F1" transform="translate(426.75,335.9375)"/>
<path d="M0 0 C-0.4125 1.216875 -0.825 2.43375 -1.25 3.6875 C-2.1874031 6.4691892 -3.07095101 9.24785553 -3.87890625 12.0703125 C-5.86796575 18.97792501 -8.36518825 25.18336818 -11.73046875 31.5390625 C-16.14502295 40.09650603 -15.13851296 52.70112662 -13.1640625 61.890625 C-8.93088086 73.65261962 -1.89366967 82.84131744 9 89 C9.84691406 89.50660156 10.69382813 90.01320313 11.56640625 90.53515625 C21.92512222 95.82502685 35.52593676 96.09619735 46.60546875 92.78515625 C50.1266495 91.58218211 53.55837977 90.17906547 56.99902344 88.76513672 C60.26374894 87.51676559 63.61338916 86.66181749 67 85.8125 C72.43320409 84.42665605 77.70998347 82.85614615 83 81 C76.19905616 94.89758088 63.03819013 103.18106725 48.83325195 108.20361328 C33.77394684 112.91699526 18.11057159 110.41669395 4 104 C-10.27622059 96.49118122 -20.65884633 84.31468232 -26 69 C-30.60742812 53.64745069 -29.43396255 36.00956867 -22.3515625 21.66015625 C-19.46576013 16.46193145 -16.5934069 11.84564299 -12 8 C-11.18789063 7.31808594 -10.37578125 6.63617188 -9.5390625 5.93359375 C-2.33619565 0 -2.33619565 0 0 0 Z " fill="#FEAA02" transform="translate(28,324)"/>
<path d="M0 0 C-0.04543945 1.10734497 -0.04543945 1.10734497 -0.09179688 2.23706055 C-0.38838281 9.59524343 -0.64905799 16.95391125 -0.87988281 24.31445312 C-0.95445325 26.60249232 -1.03584316 28.8903332 -1.12792969 31.17773438 C-1.67780849 45.13619633 -1.06208901 56.86624951 8.28125 68.1640625 C16.44553107 76.8849991 26.6282803 84.57326423 38.99609375 85.37109375 C53.61487305 85.777308 65.93068499 83.25182068 77 73 C82.70625001 67.83207547 88.64613625 63.38296835 95.046875 59.11328125 C97.66095788 57.24262141 99.81711274 55.34713363 102 53 C102.66 53.33 103.32 53.66 104 54 C98.81636545 70.03877513 89.90003008 83.47326746 75 92 C59.10268645 99.73271655 42.3674222 101.98125977 25.44091797 96.19213867 C8.82266647 90.00305416 -3.14550466 77.96832089 -10.67578125 62.1171875 C-16.40145746 48.63904704 -17.27973774 32.98693251 -12.34375 19.11328125 C-4.09410289 0 -4.09410289 0 0 0 Z " fill="#FDAA04" transform="translate(407,335)"/>
<path d="M0 0 C2.9375 2.125 2.9375 2.125 5 5 C5.29489685 8.31758956 4.68240533 10.11350318 2.65155029 12.7517395 C-1.96156244 17.93750817 -6.75804004 22.90387541 -11.671875 27.8046875 C-12.47610901 28.60987823 -13.28034302 29.41506897 -14.10894775 30.24465942 C-15.79519952 31.93158718 -17.48269667 33.6172709 -19.17138672 35.30175781 C-21.75995342 37.88493268 -24.34309419 40.47344803 -26.92578125 43.0625 C-28.56999165 44.70605021 -30.2145119 46.34929051 -31.859375 47.9921875 C-32.6312616 48.76609833 -33.40314819 49.54000916 -34.19842529 50.33737183 C-34.91637268 51.05216705 -35.63432007 51.76696228 -36.37402344 52.50341797 C-37.31831207 53.44651321 -37.31831207 53.44651321 -38.28167725 54.40866089 C-40.6968532 56.64535591 -42.5035825 57.91175869 -45.77026367 58.49243164 C-50.41146892 57.78479607 -52.46716274 55.39709216 -55.67578125 52.12109375 C-56.28640915 51.51620621 -56.89703705 50.91131866 -57.52616882 50.2881012 C-58.81169947 49.00664712 -60.08970945 47.71760992 -61.3605957 46.42163086 C-63.30271373 44.44744784 -65.27466327 42.50724091 -67.25195312 40.56835938 C-68.49932359 39.31702286 -69.7448309 38.06382575 -70.98828125 36.80859375 C-71.57676346 36.23225693 -72.16524567 35.6559201 -72.77156067 35.06211853 C-76.45445574 31.2505053 -78.00124131 28.52837326 -78 23 C-76 20 -76 20 -73 18 C-68.80511022 17.69540291 -66.96341464 18.23179357 -63.65283203 20.87158203 C-61.04176942 23.36705206 -58.54178411 25.93615569 -56.0625 28.5625 C-55.18787109 29.46419922 -54.31324219 30.36589844 -53.41210938 31.29492188 C-51.26056113 33.51701268 -49.12427281 35.75187214 -47 38 C-43.87089582 36.6126656 -41.76460071 35.00527326 -39.36474609 32.57592773 C-38.67077728 31.87858017 -37.97680847 31.1812326 -37.2618103 30.4627533 C-36.52314728 29.71063065 -35.78448425 28.958508 -35.0234375 28.18359375 C-33.87374985 27.02610374 -33.87374985 27.02610374 -32.70083618 25.8452301 C-30.25409823 23.38068313 -27.81415106 20.90955414 -25.375 18.4375 C-22.92784707 15.96275662 -20.47926422 13.48947206 -18.02774048 11.01905823 C-16.50250282 9.481535 -14.97994583 7.94134713 -13.46029663 6.39830017 C-12.77263214 5.70410477 -12.08496765 5.00990936 -11.37646484 4.29467773 C-10.46856705 3.37440041 -10.46856705 3.37440041 -9.54232788 2.43553162 C-6.51645293 -0.380821 -4.03977737 -0.47526793 0 0 Z " fill="#F9F3F0" transform="translate(296,31)"/>
<path d="M0 0 C3.87142628 0.92416303 5.37760456 2.39626546 7.64990234 5.63256836 C7.47532875 11.10076188 6.2954194 13.73433762 2.43725586 17.54223633 C1.09565147 18.88800247 1.09565147 18.88800247 -0.27305603 20.26095581 C-1.25537921 21.21595572 -2.23810055 22.17054623 -3.22119141 23.12475586 C-4.22511871 24.1200208 -5.22779163 25.11655249 -6.22926331 26.11428833 C-8.86043335 28.72828053 -11.50954944 31.32333909 -14.16247559 33.91522217 C-16.32921592 36.03826312 -18.48280083 38.1743791 -20.63583279 40.31130791 C-23.20170447 42.85759546 -25.77301417 45.39835316 -28.34619141 47.93725586 C-28.83762571 48.42226437 -29.32906002 48.90727287 -29.83538628 49.40697861 C-31.22337824 50.77402375 -32.6156161 52.13675393 -34.00805664 53.49926758 C-34.80001938 54.2753537 -35.59198212 55.05143982 -36.40794373 55.8510437 C-38.85060552 58.09168084 -39.88204886 58.58710808 -43.20556641 58.90991211 C-46.98311599 58.57673693 -47.96840053 57.80060818 -50.66259766 55.19506836 C-51.92523438 53.98657227 -51.92523438 53.98657227 -53.21337891 52.75366211 C-54.25985549 51.7142065 -55.30530652 50.67371805 -56.35009766 49.63256836 C-57.80182905 48.20669392 -59.25365955 46.78092038 -60.70556641 45.35522461 C-63.74205132 42.35521207 -66.77442176 39.35131612 -69.78759766 36.32788086 C-70.74472656 35.36906006 -70.74472656 35.36906006 -71.72119141 34.39086914 C-74.06646277 31.85929775 -75.28344013 30.15471901 -75.72509766 26.69506836 C-75.35009766 23.63256836 -75.35009766 23.63256836 -73.78759766 21.25756836 C-70.26761422 18.91091274 -68.51898823 18.86827175 -64.35009766 19.63256836 C-60.10100418 22.33987414 -56.77503865 26.18438506 -53.31494141 29.80444336 C-52.78408936 30.35261719 -52.2532373 30.90079102 -51.70629883 31.46557617 C-50.64509177 32.56694748 -49.59668596 33.68081478 -48.56225586 34.80737305 C-46.94760079 36.55188841 -46.94760079 36.55188841 -44.35009766 38.63256836 C-40.73965334 38.37515099 -39.03434949 36.65801007 -36.59472656 34.12255859 C-35.87362701 33.3818663 -35.15252747 32.64117401 -34.40957642 31.8780365 C-33.63971405 31.07386795 -32.86985168 30.2696994 -32.07666016 29.44116211 C-30.43124375 27.75781177 -28.7853971 26.07488189 -27.13916016 24.39233398 C-24.55049813 21.72914093 -21.96682004 19.0614693 -19.39111328 16.38574219 C-16.90359253 13.80771862 -14.39783992 11.24857624 -11.88916016 8.69116211 C-11.12334625 7.88496933 -10.35753235 7.07877655 -9.56851196 6.24815369 C-4.18571752 0.79035083 -4.18571752 0.79035083 0 0 Z " fill="#FAF4F1" transform="translate(97.35009765625,111.367431640625)"/>
<path d="M0 0 C0.67544861 -0.00861557 1.35089722 -0.01723114 2.04681396 -0.02610779 C4.26858375 -0.0487197 6.48908738 -0.0420393 8.7109375 -0.03295898 C10.26123427 -0.03819644 11.81152784 -0.04447337 13.36181641 -0.05174255 C16.60659815 -0.0621376 19.8509411 -0.05759811 23.09570312 -0.04296875 C27.24889485 -0.02577401 31.40070397 -0.04928753 35.55374146 -0.08445835 C38.75375492 -0.10644315 41.95343801 -0.10498856 45.15350342 -0.09669304 C46.68448402 -0.09587424 48.21548906 -0.10272402 49.74639893 -0.11746407 C51.88908334 -0.13493407 54.02928924 -0.12035354 56.171875 -0.09765625 C57.3892334 -0.09669449 58.6065918 -0.09573273 59.86083984 -0.09474182 C64.01516474 0.71444346 65.529975 2.21833513 68.0859375 5.53344727 C68.1484375 9.15844727 68.1484375 9.15844727 67.0859375 12.53344727 C64.72234983 14.97083638 63.33362136 15.50295957 59.93640137 15.92112732 C58.69604126 15.9265303 57.45568115 15.93193329 56.17773438 15.9375 C55.14774071 15.94779488 55.14774071 15.94779488 54.09693909 15.95829773 C51.83264347 15.97656315 49.5690408 15.97272935 47.3046875 15.96704102 C45.72814712 15.97160259 44.15160874 15.97690809 42.57507324 15.98292542 C39.27311111 15.99185568 35.97139085 15.98943404 32.66943359 15.97949219 C28.43896319 15.96799551 24.20932662 15.98822429 19.97896576 16.01740932 C16.72412824 16.03575787 13.46949112 16.03548174 10.21461487 16.0297718 C8.6549004 16.02961846 7.09517247 16.0356737 5.5355072 16.04806328 C3.35451964 16.06294915 1.17507987 16.05231691 -1.00585938 16.03515625 C-2.86639954 16.034907 -2.86639954 16.034907 -4.76452637 16.03465271 C-8.50867979 15.43882209 -9.69446397 14.56148408 -11.9140625 11.53344727 C-12.4765625 8.03344727 -12.4765625 8.03344727 -11.9140625 4.53344727 C-8.12327921 0.59416706 -5.37081411 0.02734725 0 0 Z " fill="#978ECB" transform="translate(43.9140625,229.466552734375)"/>
<path d="M0 0 C0.67530258 -0.00700928 1.35060516 -0.01401855 2.04637146 -0.02124023 C4.27360439 -0.03881234 6.4995613 -0.02720049 8.72680664 -0.01367188 C10.27853132 -0.01636737 11.83025436 -0.02025027 13.38197327 -0.02526855 C16.63274226 -0.03116275 19.88307127 -0.02260488 23.13378906 -0.00390625 C27.29470131 0.01886486 31.45458046 0.00577235 35.61545467 -0.01819611 C38.81974525 -0.03267282 42.02379224 -0.02803932 45.22809029 -0.01768494 C46.76184779 -0.01502181 48.29562761 -0.01827287 49.82935905 -0.02760315 C51.97667583 -0.03779828 54.12233732 -0.02222904 56.26953125 0 C57.48990585 0.00318237 58.71028046 0.00636475 59.96763611 0.00964355 C63.83103046 0.61683932 65.50644502 1.71647516 68.19946289 4.51757812 C68.76196289 8.01757812 68.76196289 8.01757812 68.19946289 11.51757812 C65.98032238 14.54361739 64.79071822 15.42222471 61.04992676 16.0255127 C59.1893866 16.03028625 59.1893866 16.03028625 57.29125977 16.03515625 C56.60459732 16.04216553 55.91793488 16.0491748 55.21046448 16.05639648 C52.94596638 16.07396825 50.68272317 16.06235807 48.41821289 16.04882812 C46.84167237 16.05152331 45.26513347 16.05540595 43.68859863 16.0604248 C40.38655755 16.06631869 37.08494966 16.05776091 33.78295898 16.0390625 C29.55245229 16.01627244 25.32296061 16.02939619 21.09249115 16.05335236 C17.83762986 16.06781364 14.58300882 16.06320296 11.32814026 16.05284119 C9.76843648 16.05017478 8.20871081 16.05344067 6.64903259 16.0627594 C4.46799027 16.07293115 2.28858643 16.05741854 0.10766602 16.03515625 C-1.13269409 16.03197388 -2.3730542 16.0287915 -3.65100098 16.0255127 C-7.39092018 15.42236538 -8.58503602 14.54603268 -10.80053711 11.51757812 C-11.351569 7.6603549 -11.5389083 5.52265799 -9.19432068 2.33117676 C-5.99602215 -0.09194533 -3.99143967 0.01041527 0 0 Z " fill="#978ECB" transform="translate(409.800537109375,229.482421875)"/>
<path d="M0 0 C1.06099328 1.73835057 2.09826483 3.49119804 3.125 5.25 C3.70507812 6.22453125 4.28515625 7.1990625 4.8828125 8.203125 C6 11 6 11 5.65625 13.0859375 C3.09332259 16.04781116 -0.20061417 17.59533695 -3.625 19.375 C-5.25411769 20.24848509 -6.88163671 21.12495634 -8.5078125 22.00390625 C-9.82700684 22.71571045 -9.82700684 22.71571045 -11.17285156 23.44189453 C-17.36041879 26.85200283 -23.42098056 30.4879516 -29.49853516 34.08935547 C-35.55177996 37.6521805 -41.67105153 40.95250386 -48 44 C-49.1470194 42.20909242 -50.29257935 40.41725003 -51.4375 38.625 C-52.39462891 37.12839844 -52.39462891 37.12839844 -53.37109375 35.6015625 C-55 33 -55 33 -56 31 C-55.27748047 30.58862793 -54.55496094 30.17725586 -53.81054688 29.75341797 C-39.59644891 21.65641049 -25.40509559 13.52582865 -11.29101562 5.25537109 C-10.35708984 4.7083252 -9.42316406 4.1612793 -8.4609375 3.59765625 C-7.64415527 3.11820557 -6.82737305 2.63875488 -5.98583984 2.14477539 C-2.26530177 0 -2.26530177 0 0 0 Z " fill="#C1BBDF" transform="translate(161,303)"/>
<path d="M0 0 C4.16077772 1.27079636 7.74479974 2.82976691 11.5 5.01953125 C12.54236816 5.62369873 13.58473633 6.22786621 14.65869141 6.8503418 C15.76132324 7.497854 16.86395508 8.14536621 18 8.8125 C19.13743652 9.47741455 20.27487305 10.1423291 21.44677734 10.82739258 C23.20969785 11.85798262 24.97211869 12.88937859 26.73300171 13.92344666 C30.66904728 16.23283726 34.62825346 18.49723793 38.6015625 20.7421875 C40.60949369 21.89041748 42.61731187 23.0388451 44.625 24.1875 C45.57246094 24.71512939 46.51992188 25.24275879 47.49609375 25.78637695 C48.35589844 26.28355225 49.21570313 26.78072754 50.1015625 27.29296875 C50.85775879 27.7211792 51.61395508 28.14938965 52.39306641 28.59057617 C52.92335449 29.05568604 53.45364258 29.5207959 54 30 C54 35.77080019 51.00663103 39.23950087 48 44 C39.90041341 40.06675716 32.05973044 35.83569564 24.3125 31.25 C22.22542681 30.01794725 20.13818598 28.78617845 18.05078125 27.5546875 C17.03322754 26.95366211 16.01567383 26.35263672 14.96728516 25.73339844 C12.21712397 24.12683727 9.44964932 22.55898247 6.66796875 21.0078125 C5.87285889 20.55889648 5.07774902 20.10998047 4.25854492 19.64746094 C2.78741531 18.81862865 1.30992816 18.00094961 -0.17456055 17.19628906 C-2.125 16.0859375 -2.125 16.0859375 -5 14 C-5 9.83588785 -4.38740919 8.33607747 -2.5 4.75 C-2.0359375 3.85796875 -1.571875 2.9659375 -1.09375 2.046875 C-0.7328125 1.37140625 -0.371875 0.6959375 0 0 Z " fill="#C1BBDF" transform="translate(351,303)"/>
<path d="M0 0 C3.70683587 0.70981963 4.68774909 1.54652093 6.9375 4.5625 C7.28673596 7.38267427 7.40599209 9.79970263 7.328125 12.609375 C7.32246521 13.38057678 7.31680542 14.15177856 7.31097412 14.9463501 C7.28863589 17.40237279 7.23844763 19.85692055 7.1875 22.3125 C7.16743154 23.98044763 7.14918137 25.64841821 7.1328125 27.31640625 C7.08877992 31.39900323 7.01977283 35.48050181 6.9375 39.5625 C8.030625 39.51996094 9.12375 39.47742188 10.25 39.43359375 C13.9375 39.5625 13.9375 39.5625 16.9375 41.625 C18.9375 44.5625 18.9375 44.5625 19 48.1875 C17.79592369 52.01221297 17.38812902 52.70573296 13.9375 54.5625 C11.02295791 54.93586239 8.41218179 55.11753924 5.5 55.125 C4.74912109 55.16173828 3.99824219 55.19847656 3.22460938 55.23632812 C2.49177734 55.24212891 1.75894531 55.24792969 1.00390625 55.25390625 C0.0130603 55.27239624 0.0130603 55.27239624 -0.99780273 55.29125977 C-4.46453011 54.06763659 -6.39424152 51.71563424 -8.0625 48.5625 C-8.76682074 45.28065032 -8.7644619 42.09344069 -8.7265625 38.74609375 C-8.73134613 37.81201187 -8.73612976 36.87792999 -8.74105835 35.9155426 C-8.74444967 33.94799101 -8.73530114 31.98038248 -8.71435547 30.01293945 C-8.68754808 27.00539453 -8.71414426 24.00157107 -8.74609375 20.99414062 C-8.74279011 19.07811679 -8.73638481 17.16209526 -8.7265625 15.24609375 C-8.73668365 14.35014999 -8.74680481 13.45420624 -8.75723267 12.53111267 C-8.67355311 8.06516393 -8.5049027 6.14043621 -5.71240234 2.49243164 C-3.0625 0.5625 -3.0625 0.5625 0 0 Z " fill="#FFF3EF" transform="translate(452.0625,329.4375)"/>
<path d="M0 0 C1.0076952 1.7664657 2.00591714 3.53833823 3 5.3125 C3.556875 6.29863281 4.11375 7.28476563 4.6875 8.30078125 C6 11 6 11 6 14 C5.36835938 14.35078613 4.73671875 14.70157227 4.0859375 15.06298828 C1.0558562 16.74776151 -1.9723915 18.43578686 -5 20.125 C-6.67292114 21.05832153 -6.67292114 21.05832153 -8.37963867 22.01049805 C-17.4566372 27.09379574 -26.44607434 32.31262256 -35.38085938 37.64306641 C-36.32380859 38.2004248 -37.26675781 38.7577832 -38.23828125 39.33203125 C-39.06368408 39.82421143 -39.88908691 40.3163916 -40.73950195 40.82348633 C-42.84927913 41.92155482 -44.6761659 42.54509773 -47 43 C-47.9795958 41.20856793 -48.9586633 39.41684696 -49.9375 37.625 C-50.48277344 36.62726563 -51.02804687 35.62953125 -51.58984375 34.6015625 C-52.4149759 33.07929654 -53.22564391 31.54871217 -54 30 C-53.27748047 29.58862793 -52.55496094 29.17725586 -51.81054688 28.75341797 C-49.00688053 27.15631998 -46.20373323 25.55831627 -43.40106201 23.95947266 C-42.13622983 23.23794126 -40.87129694 22.51658637 -39.60626221 21.79541016 C-32.67137291 17.84060041 -25.74794672 13.86871495 -18.8671875 9.8203125 C-17.77083984 9.17594238 -16.67449219 8.53157227 -15.54492188 7.86767578 C-13.4580266 6.63810486 -11.37332602 5.40480012 -9.29101562 4.16748047 C-8.35708984 3.61721191 -7.42316406 3.06694336 -6.4609375 2.5 C-5.64415527 2.0153125 -4.82737305 1.530625 -3.98583984 1.03125 C-2 0 -2 0 0 0 Z " fill="#C1BBE0" transform="translate(398,166)"/>
<path d="M0 0 C3.84890422 1.53956169 7.19953023 3.12453669 10.796875 5.125 C11.91312256 5.7447168 13.02937012 6.36443359 14.17944336 7.00292969 C15.36977708 7.66835481 16.55995989 8.33404994 17.75 9 C18.3507132 9.3350354 18.95142639 9.6700708 19.57034302 10.01525879 C27.06371985 14.19480763 34.53571326 18.40975518 41.9375 22.75 C42.60942383 23.14316406 43.28134766 23.53632813 43.97363281 23.94140625 C47.11962873 25.80496846 50.13204941 27.72864064 53 30 C51.35666805 34.78060205 48.72163934 38.78329919 46 43 C37.90022736 39.06666681 30.06093948 34.83385405 22.3125 30.25 C21.28318359 29.64526855 20.25386719 29.04053711 19.19335938 28.41748047 C16.12689207 26.61504949 13.06337561 24.80767894 10 23 C8.2229323 21.95525947 6.44560701 20.91095692 4.66796875 19.8671875 C0.77649938 17.58175266 -3.11257771 15.29231152 -7 13 C-3.535 6.565 -3.535 6.565 0 0 Z " fill="#C0BBDF" transform="translate(114,166)"/>
<path d="M0 0 C2.16308594 1.52832031 2.16308594 1.52832031 4 4 C4.34923596 6.82017427 4.46849209 9.23720263 4.390625 12.046875 C4.38496521 12.81807678 4.37930542 13.58927856 4.37347412 14.3838501 C4.35113589 16.83987279 4.30094763 19.29442055 4.25 21.75 C4.22993154 23.41794763 4.21168137 25.08591821 4.1953125 26.75390625 C4.15127992 30.83650323 4.08227283 34.91800181 4 39 C5.093125 38.95746094 6.18625 38.91492188 7.3125 38.87109375 C11 39 11 39 14 41.0625 C16 44 16 44 16.0625 47.625 C14.85877853 51.44858586 14.45709235 52.15366066 11 54 C8.0723449 54.31985208 5.42132651 54.46477894 2.5 54.4375 C1.74074219 54.45748047 0.98148438 54.47746094 0.19921875 54.49804688 C-3.0328545 54.49521669 -5.44370042 54.34823912 -8.21484375 52.61352539 C-11.00658581 48.52632643 -10.57152547 44.52736948 -10.53125 39.6875 C-10.5350769 38.68162842 -10.53890381 37.67575684 -10.54284668 36.6394043 C-10.54556651 34.51447549 -10.53820041 32.38951324 -10.52148438 30.26464844 C-10.50007641 27.01161068 -10.52128432 23.76078155 -10.546875 20.5078125 C-10.54423174 18.44270346 -10.53910679 16.37759579 -10.53125 14.3125 C-10.53934692 13.33949951 -10.54744385 12.36649902 -10.55578613 11.36401367 C-10.46259682 4.65497835 -10.46259682 4.65497835 -8.15429688 1.38671875 C-5.19121892 -0.52061158 -3.45732859 -0.57622143 0 0 Z " fill="#FFF4F3" transform="translate(63,328)"/>
<path d="M0 0 C3.3707412 0.98340242 4.22978881 2.59490218 6.03515625 5.59375 C6.6362509 9.34193793 6.59556752 13.0542362 6.56640625 16.84375 C6.57023315 17.93461914 6.57406006 19.02548828 6.57800293 20.14941406 C6.58072114 22.45248336 6.5733664 24.75558358 6.55664062 27.05859375 C6.53523112 30.58143012 6.55644686 34.10222698 6.58203125 37.625 C6.57938796 39.86458783 6.57426296 42.10417439 6.56640625 44.34375 C6.57450317 45.39594727 6.5826001 46.44814453 6.59094238 47.53222656 C6.49752877 54.82624834 6.49752877 54.82624834 4.12915039 58.75756836 C1.85219718 60.75418315 0.9586057 61.25405567 -2.02734375 61.15625 C-5.96484375 60.59375 -5.96484375 60.59375 -7.68667603 58.88807678 C-9.2121696 56.14979705 -9.34495499 54.44576718 -9.35302734 51.32202148 C-9.36248383 50.27090683 -9.37194031 49.21979218 -9.38168335 48.13682556 C-9.37561066 47.00757156 -9.36953796 45.87831757 -9.36328125 44.71484375 C-9.36615143 43.55122818 -9.36902161 42.38761261 -9.37197876 41.18873596 C-9.37401953 38.73006707 -9.36848881 36.27138194 -9.35595703 33.81274414 C-9.33989004 30.04211286 -9.35581371 26.27255122 -9.375 22.50195312 C-9.37301786 20.11458096 -9.36917478 17.72720946 -9.36328125 15.33984375 C-9.36935394 14.20856552 -9.37542664 13.07728729 -9.38168335 11.91172791 C-9.37222687 10.86376541 -9.36277039 9.81580292 -9.35302734 8.73608398 C-9.35064056 7.81327133 -9.34825378 6.89045868 -9.34579468 5.93968201 C-8.96484375 3.59375 -8.96484375 3.59375 -7.68667603 1.80360413 C-5.27373595 0.10813962 -2.88241694 0.13329096 0 0 Z " fill="#FFF1F1" transform="translate(257.96484375,408.40625)"/>
<path d="M0 0 C1.0209375 -0.01160156 1.0209375 -0.01160156 2.0625 -0.0234375 C4.62723604 0.50398806 5.39536062 1.31690815 7 3.375 C7.39440918 5.75889587 7.39440918 5.75889587 7.41992188 8.60913086 C7.43583374 9.67711411 7.45174561 10.74509735 7.46813965 11.84544373 C7.46834106 12.99859573 7.46854248 14.15174774 7.46875 15.33984375 C7.47636353 16.52469864 7.48397705 17.70955353 7.49182129 18.93031311 C7.50263415 21.43781424 7.50547061 23.94536045 7.50097656 26.45288086 C7.50000463 30.29421954 7.54160917 34.13355946 7.5859375 37.97460938 C7.5911445 40.40884999 7.59383269 42.84309757 7.59375 45.27734375 C7.6183429 47.00403542 7.6183429 47.00403542 7.64343262 48.76560974 C7.57452156 56.69787675 7.57452156 56.69787675 4.65820312 60.13500977 C1.24333867 61.727965 -0.44393173 61.53458748 -4 60.375 C-6.2806233 58.67982567 -6.92883502 57.82158975 -7.38095093 54.984375 C-7.38333771 54.04078125 -7.38572449 53.0971875 -7.38818359 52.125 C-7.39764008 51.05378906 -7.40709656 49.98257813 -7.4168396 48.87890625 C-7.41076691 47.72261719 -7.40469421 46.56632812 -7.3984375 45.375 C-7.40130768 44.18777344 -7.40417786 43.00054687 -7.40713501 41.77734375 C-7.40917777 39.26562015 -7.40363322 36.75388072 -7.39111328 34.2421875 C-7.3750636 30.39026428 -7.39095588 26.53939045 -7.41015625 22.6875 C-7.40817386 20.24999768 -7.40433027 17.81249601 -7.3984375 15.375 C-7.40451019 14.21871094 -7.41058289 13.06242187 -7.4168396 11.87109375 C-7.40738312 10.79988281 -7.39792664 9.72867188 -7.38818359 8.625 C-7.38579681 7.68140625 -7.38341003 6.7378125 -7.38095093 5.765625 C-6.67946119 1.36348606 -4.26664775 -0.04848463 0 0 Z " fill="#FFF4F4" transform="translate(454,97.625)"/>
<path d="M0 0 C1.27006897 -0.00717545 1.27006897 -0.00717545 2.5657959 -0.01449585 C4.3510118 -0.01788925 6.13629032 -0.00872591 7.92138672 0.01220703 C10.64822423 0.03898369 13.3709462 0.01244352 16.09765625 -0.01953125 C17.83594655 -0.01622705 19.5742343 -0.00982059 21.3125 0 C22.52987854 -0.01518173 22.52987854 -0.01518173 23.77185059 -0.03067017 C28.03497151 0.0572414 29.69604091 0.30565047 33.17382812 3.01416016 C35.15625 5.6640625 35.15625 5.6640625 35.71875 8.7265625 C35.00138008 12.47282762 34.23995297 13.41943013 31.15625 15.6640625 C28.08495424 16.26175806 25.05851993 16.22457343 21.9375 16.1953125 C20.59516296 16.20105286 20.59516296 16.20105286 19.22570801 16.20690918 C17.33617018 16.2096277 15.44659468 16.20227066 13.55712891 16.18554688 C10.6661381 16.16413573 7.77763233 16.18534984 4.88671875 16.2109375 C3.04947369 16.20829421 1.21223017 16.20316921 -0.625 16.1953125 C-1.92044739 16.20745789 -1.92044739 16.20745789 -3.24206543 16.21984863 C-9.20816286 16.1267074 -9.20816286 16.1267074 -12.38476562 13.81445312 C-14.41507435 10.82199007 -14.49500074 9.20976097 -13.84375 5.6640625 C-9.74839802 0.18980752 -6.3802286 -0.07956681 0 0 Z " fill="#968DCB" transform="translate(45.84375,260.3359375)"/>
<path d="M0 0 C0.84671265 -0.00241196 1.69342529 -0.00482391 2.5657959 -0.00730896 C4.35104061 -0.00633206 6.1363162 0.00702428 7.92138672 0.03198242 C10.6478608 0.06630065 13.37109312 0.0526329 16.09765625 0.03320312 C17.83595124 0.04010192 19.5742379 0.0497746 21.3125 0.0625 C22.12408569 0.05754013 22.93567139 0.05258026 23.77185059 0.04747009 C27.75390211 0.12997913 29.72236703 0.35415706 33.16967773 2.53710938 C35.15625 4.62890625 35.15625 4.62890625 35.78515625 6.6640625 C35.60715543 12.09832275 35.60715543 12.09832275 33.69726562 14.34570312 C29.8464142 16.29036829 26.1962954 16.09666301 21.9375 16.09765625 C21.04260864 16.10526978 20.14771729 16.1128833 19.22570801 16.12072754 C17.33620999 16.13151902 15.44665237 16.13438551 13.55712891 16.12988281 C10.66598269 16.12890953 7.77748247 16.17055971 4.88671875 16.21484375 C3.0494847 16.22005019 1.21224143 16.22273895 -0.625 16.22265625 C-1.48863159 16.23905151 -2.35226318 16.25544678 -3.24206543 16.27233887 C-9.23067566 16.20333947 -9.23067566 16.20333947 -12.38476562 13.24804688 C-14.05089398 10.25704537 -14.59693089 8.97637688 -13.84375 5.62890625 C-9.70366573 0.1636891 -6.40386313 -0.10461465 0 0 Z " fill="#968DCB" transform="translate(442.84375,260.37109375)"/>
<path d="M0 0 C5.28 0 10.56 0 16 0 C16 9.9 16 19.8 16 30 C10.72 30 5.44 30 0 30 C0 20.1 0 10.2 0 0 Z " fill="#BDB7DE" transform="translate(248,120)"/>
<path d="M0 0 C4.62 0 9.24 0 14 0 C14 9.57 14 19.14 14 29 C9.38 29 4.76 29 0 29 C0 19.43 0 9.86 0 0 Z " fill="#C3BDE1" transform="translate(249,363)"/>
<path d="M0 0 C4.42690311 1.44355536 4.42690311 1.44355536 5.875 3.9375 C6.40968062 7.49461138 6.50233051 10.68283898 4.875 13.9375 C1.59712436 15.57643782 -1.60682577 15.68634833 -5.125 14.9375 C-7.6875 12.8125 -7.6875 12.8125 -9.125 9.9375 C-9.20604732 5.96618124 -8.5938579 4.45994166 -5.9375 1.5 C-3.125 -0.0625 -3.125 -0.0625 0 0 Z " fill="#FFEFEF" transform="translate(455.125,169.0625)"/>
<path d="M0 0 C3.4375 0.9375 3.4375 0.9375 5.375 2 C7.12881398 5.19813137 7.0877362 8.39075707 6.4375 11.9375 C4.875 13.9375 4.875 13.9375 2.4375 14.9375 C-0.96094421 15.29523097 -3.42123258 15.52654125 -6.5 13.9375 C-8.22410604 10.69212393 -8.18663468 7.46953487 -7.5625 3.9375 C-5.3173484 0.25545138 -4.33137369 -0.07598901 0 0 Z " fill="#FFF1F1" transform="translate(256.5625,480.0625)"/>
<path d="M0 0 C7.15801225 5.82628904 13.52591766 12.4382985 20 19 C19.01 19.33 18.02 19.66 17 20 C1.20322961 6.23245901 1.20322961 6.23245901 0 0 Z " fill="#57D067" transform="translate(226,68)"/>
</svg>
